<?xml version="1.0" encoding="UTF-8"?>
<!DOCTYPE svg PUBLIC "-//W3C//DTD SVG 1.1//EN" "http://www.w3.org/Graphics/SVG/1.1/DTD/svg11.dtd">
<!-- Creator: CorelDRAW 2020 (64-Bit) -->
<svg xmlns="http://www.w3.org/2000/svg" xml:space="preserve" width="267.497mm" height="286.341mm" version="1.1" style="shape-rendering:geometricPrecision; text-rendering:geometricPrecision; image-rendering:optimizeQuality; fill-rule:evenodd; clip-rule:evenodd"
viewBox="0 0 21869.4 23410"
 xmlns:xlink="http://www.w3.org/1999/xlink"
 xmlns:xodm="http://www.corel.com/coreldraw/odm/2003">
 <defs>
  <style type="text/css">
   <![CDATA[
    .fil16 {fill:#0C3164}
    .fil1 {fill:#0D2960}
    .fil4 {fill:#11316E}
    .fil2 {fill:#11316F}
    .fil10 {fill:#113370}
    .fil21 {fill:#144A6C}
    .fil15 {fill:#163E82}
    .fil27 {fill:#19478B}
    .fil17 {fill:#1A458A}
    .fil13 {fill:#1B4A93}
    .fil14 {fill:#254A87}
    .fil12 {fill:#26549C}
    .fil24 {fill:#27549A}
    .fil20 {fill:#32818E}
    .fil6 {fill:#C1C9DA}
    .fil19 {fill:#C8A859}
    .fil26 {fill:#DBBC75}
    .fil8 {fill:#DDC17A}
    .fil7 {fill:#E6C986}
    .fil29 {fill:#ECD699}
    .fil11 {fill:#EED593}
    .fil28 {fill:#F2F4F6}
    .fil25 {fill:#F4DCA5}
    .fil18 {fill:#F7E1AD}
    .fil0 {fill:#F8E1AC}
    .fil23 {fill:#FBFBFC}
    .fil22 {fill:#FCECDA}
    .fil9 {fill:#FCF2D3}
    .fil5 {fill:#FCFCFB}
    .fil3 {fill:#FDECD6}
   ]]>
  </style>
 </defs>
 <g id="图层_x0020_1">
  <metadata id="CorelCorpID_0Corel-Layer"/>
  <g id="_3099852425344">
   <path class="fil0" d="M7722.33 4913.81c20.52,38.91 19.52,-7.02 -39.11,34.12l-253.44 178.15c-120.94,83.71 -217.76,137.02 -330.24,218.5 -412.39,298.72 -877.72,652.39 -1196.92,1052.58 -664.49,833.1 -712.32,949.77 -1259.63,2058.38 -183.96,372.62 -180.61,445.09 -449.68,673.93 -147.46,125.41 -450.08,393.44 -702.89,282.38 -209.04,285.52 -270.66,668.44 -356.57,735.87 -96.94,76.09 7.5,16.06 -114.02,47.67 -118.55,603.97 -148.62,1016.13 -134.8,1638.73 48.89,-44.53 608,-1244.79 913.61,-1416.84 -15.77,1087.73 39.35,1681.66 581.64,2623.39 80.82,140.34 335.23,546.49 442.29,622.07 73.92,-145.84 146.19,-1152.41 287.71,-1452.12l54.02 -84.67c-22.56,-387.51 -29.42,-760.29 100.29,-1099.8 35.74,404.97 115.56,1491.53 416.35,1813.5l339.81 -1130.49c101.63,-318.3 683.47,-2074.62 691.24,-2245.65 23.86,-524.63 109.06,-765.1 256.19,-1202.23 3.08,181.29 -46.29,426.14 -58.94,623.91 -15.37,240.44 -7.34,482.87 19.94,721.94 47.57,416.86 117.98,793.68 263.49,1167.61 202.8,521.18 726.55,1479.99 1151.52,1716.24 -4.32,-337.49 -5.53,-631.9 44.14,-947.02 70.57,44.21 190.98,196.79 249.8,267.18 92.64,110.87 160.59,181.69 274.23,273.46 111.23,89.82 486.94,405.65 621.88,451.45 81.08,-525.48 99.55,-1119.87 178.37,-1661.22 38.04,-261.21 78.06,-536.01 127.51,-794.37l127.82 -571.34c4.61,-18.62 15.15,-63.94 24.89,-86.95 44.1,-104.07 -65.58,115.9 20.37,-39.5l25.57 -37.12c150.54,363.78 548.68,945.64 796.01,1278.37 198.8,267.44 280.29,341.34 485.32,552.55 399.72,411.78 828.92,779.87 1362.02,1041.7 70.21,-400.81 -51.24,-1540.78 -121.68,-1969.31 -146.09,-888.86 -304.76,-1150.89 -415.47,-1691.16 235.35,233.97 514.64,1169.46 606.54,1589.12 284.38,1298.43 304.85,2785.09 101.8,4099.1 -104.9,678.85 -229.37,1223.6 -375.61,1867.14l1472.88 -599.56c181.76,-76.97 154.94,-105.71 237.75,-282.19 1164.74,-2482.53 1363.24,-5509.56 -64.46,-7896.77 -131.22,-219.4 -282.14,-440.58 -426.36,-611.61 -308.26,-365.55 -667.34,-736.03 -1075.14,-1002.03 -158.2,-103.18 -464.65,-312.46 -646.02,-372.09 362.54,51.06 916.85,389.51 1212.03,614.2l331.53 302.73c100.71,110.98 201.48,181.43 308.37,297.19 291.25,315.39 556.76,726.42 776.92,1127.23 654.98,1192.44 862.92,2632.78 819.73,4168.71 270.98,34.82 444.06,162.85 560.19,306.44 197.69,244.45 150.81,355.96 272.13,607.65 152.96,-383.84 238.12,-447.82 384.86,-969.18 106.12,-377.02 167.16,-744.37 201.95,-1153.35 55.02,-646.77 6.38,-1245.15 -133.26,-1868.73 -29.68,-132.53 -82.17,-435.73 -168.6,-537.34 -66.75,665.13 -219.06,1284.07 -623.37,1795.14 -90.87,114.86 -272.8,324.03 -402.08,395.09 16.66,-50.26 356.68,-549.05 462.17,-766.99 146.92,-303.54 238.31,-555.4 332.15,-903.45 84.15,-312.11 180.33,-784.33 35.65,-1085.82 -88.77,-184.98 -297.07,-693.82 -473.67,-822.96 -127.24,393.31 -579.59,834.45 -1080.37,901.8 77.35,-63.13 201.94,-133.33 289.68,-197.6 322.56,-236.32 540.9,-422.74 730.66,-808.21 -137.83,-349.58 -831.8,-993.22 -1156.43,-1247.35 -968.74,-758.36 -2300.45,-1194.13 -3583.44,-1222.97 -558.26,-12.55 -1674.4,53.35 -2164.35,249.52 10.64,184.53 136.33,335.9 158.88,532 -199.75,-52.27 -384.08,-352.65 -476.95,-530.72 -112,-214.76 -205.37,-483.25 -249.81,-760.53 -103.98,-648.61 -69.71,-1146.14 187.6,-1697.7 219.1,-469.65 572.85,-816.86 959.13,-1060.83 507.17,-320.3 882.61,-397.44 1563.02,-458.09 -541.61,-433.8 -3022.12,56.87 -3615.38,1173.68 -781.08,1470.39 1300.58,3361.33 1317.92,3400.26 -286.24,28.75 -579.43,-314.06 -736.11,-316.47l-294.78 101.65z"/>
   <path class="fil1" d="M4324.6 20791.01c128.01,166.63 140.24,274.63 325.63,341.21 -145.88,671.16 -1054.8,360.56 -1201.68,-21.31 -90.55,-241.73 13.83,-1158.12 794.08,-902.88 42.64,110.12 -54.29,177.98 81.97,582.97zm403.43 221.02c-200.31,-187.63 -333.55,-351.55 -305.59,-758.42 38.78,-32.94 1671.17,-646.14 1891.88,-733.79l62.52 183.88c44.52,302.41 58.65,271.33 217.05,516.66l-1865.86 791.66zm3890.63 -186.25l440.46 398.8c58.92,44.21 109.75,64.9 170.21,120.61 -177.74,170.3 -640.62,360.57 -924.93,432.7 -150.8,-121.04 -303.21,-331.85 -431.83,-491.48 -75.29,-93.45 -114.86,-163.2 -194.46,-266.3 -77.29,-100.1 -133.78,-152.1 -187.6,-272.52 -101.66,-162.05 -178.34,-294.88 -251.32,-470.96 -211.63,-7.59 -326.94,128.2 -554.38,-344.67 62.3,-48.46 151.99,-67.1 231.03,-85.45 277.8,-64.49 197.73,-106.73 459.58,-178.77 47.78,-13.15 83,-22.17 131.03,-41.59 90.84,-36.73 -3.39,-29.04 134.59,-49.66l703.92 949.74c98.06,118.79 182.21,163.17 273.7,299.57zm3430.26 -668.58c52.53,56.07 36.1,39.06 116.44,3.86 30,-13.15 642.27,-548.46 811.37,-594.64 165.64,120.06 -37.85,45.91 297.75,269.74l317.21 268.85c-58.1,229.59 -556.36,1018.27 -759.17,1225.05 -263.52,-153.92 -817.59,-1004.75 -863.46,-1050.65 -4.31,-4.31 -11.81,-10.59 -15.94,-14.38l-35.58 -27.85c-23.84,-127.02 -59.43,-91.39 -93.25,-224.02 394.06,-301.14 315.35,-679.93 773.53,-779.69 -67.01,301.33 -425.28,680.68 -548.89,923.74zm-6094.59 -2763.31c103.02,-144.23 666.2,-536.23 907.98,-615.01 73.57,179.75 89.21,465.16 147.18,672.28l555.33 1875.12c-155.98,144.24 -605.75,257.48 -732,312.46 -78.35,34.12 -132.68,97.56 -224.43,143.88 -128.09,-301.48 -95.92,-492.12 37.94,-723.46 337.54,17.12 491.47,192.8 737.75,188.5 -120.86,-299.94 -516.76,-398.15 -820.52,-402.74 -181.48,-479 -465.03,-898.76 -609.23,-1451.04zm3053.11 94.01c18.56,-77.81 34.68,-147.97 64.86,-222.01 43.76,-107.35 47.21,-91.54 138.22,-149.03 116.77,-73.77 217.29,-127.28 342.16,-205.93 120.28,-75.76 229.67,-166.21 410.59,-112.61 128.45,38.05 312.53,100.22 377.75,191.79 -257.44,137.93 -1043.55,426.04 -1333.58,497.79zm-293.71 -1219.41l470.51 -17.44 -446.32 1335.77c-195.76,33.15 -158.62,12.56 -299.54,-34.39 -102.04,-34 -210.4,-22.86 -335.88,-37.78 -129.57,-189.27 -209.61,-425.73 -174.58,-705.03l358.94 -298.22c90.64,-90.36 242.56,-245.7 426.88,-242.91zm2084.1 555.27c-306.94,70.44 -152.99,104.3 -457.66,-23.8 -597.31,-251.14 -311.33,-277.42 -826.8,14.96 -143.14,81.19 -248.43,169.05 -365.63,231.29 98.6,-434.74 143.46,-221.25 472.83,-521.18l-163.72 -171.25c-44.95,-73.86 -12.55,-14.58 -38.87,-84.72l1089.57 -172.56c113.06,-50.37 422.83,-130.61 550.39,-129.27 43.87,197.08 -145.33,394.88 -195.56,636.3 -8.81,42.37 -10.01,94.7 -17.02,125.03l-47.52 95.19zm3797.91 -1597.5c229.82,-694.41 290.04,-562.02 576.45,-682.48 662.88,-278.81 754.69,-648.3 1041.43,-1044.12l147.3 1012.84c-164.02,43.86 -302.46,122.94 -459.88,183.61 -357.08,137.64 -1040.81,453.87 -1305.3,530.15zm-3677.95 4413.35c-407.63,286.89 -1176.21,485.79 -1629.71,752.27l117.25 860.25c-103.46,-25.92 -154.19,-129.33 -216.32,-186.26 -570.85,-523.15 -701.44,-671.47 -1179.29,-1301.04 -340.72,-448.9 -220.36,-291.57 -271.08,-563.61 -76.15,-408.4 -497.08,-1706.78 -634.86,-2267.52 271.91,130.31 1034.61,1159.97 1045.2,1165.27 119.26,17.54 1626.09,-530.8 1881.43,-611.2 90.23,-75.08 6273,-2591.87 7015.4,-2917.47 527.5,-231.36 648.82,-306.41 1296.28,-345.08 530.76,-31.7 1103.62,-51.32 1636.31,-20.17 -97.89,258.99 -997.84,1242.36 -1223.35,1439.32 -450.93,393.84 -1223.87,707 -1755.83,982.74l-3624.02 1827.97c-359.96,174.2 -2264.12,1137.33 -2457.4,1184.55zm5750.65 -5282.73c-99.42,-276.83 -115.08,-611.65 -179.69,-908.95 -56.43,-259.63 -67.58,-259.66 51.47,-453.82 71.65,-116.84 105.27,-246.03 185.9,-350.85 65.21,61.3 643.64,1296.55 659.82,1431.56 -238.51,86.07 -494.61,238.18 -717.5,282.07zm-1692.38 -144.77c55.81,-297.69 179.6,-644.97 250.58,-972.01 69.03,-317.99 96.07,-761.33 172.77,-1040.16 477.47,15.25 606.3,693.14 440.91,1164.96 -133.87,381.86 -516.24,784.2 -864.26,847.21zm1898.9 -1923.17c19.14,-133.57 172.31,-703.56 226.11,-818.19 370.39,-12.03 1412.59,339.53 1704.1,492.1 -28.49,280.36 -366.71,1006.4 -521.59,1189.93 -289.53,-13.69 -1197.11,-666.86 -1408.62,-863.84zm-6068.64 1357.94c44.61,-30.14 24.22,9.52 76.76,-77.33 41.88,-69.24 15.08,-28.15 26.64,-78.68 13.84,-71.65 -37.57,-519.84 -22.38,-712.33 16.41,-208.12 57.45,-447.64 157.02,-601.78 181.48,-44.56 355.29,14.44 518.27,57.2 188.1,49.36 194.94,95.65 281.57,264.98 159.53,311.81 140.48,578.73 161.49,944.47 16.34,46.45 18.42,115.39 35.63,162.69 33.33,91.6 11.47,80.42 92.41,67.37 182.72,-1008.91 -252.4,-1266.07 -79.92,-1497.19 198,116.59 408.48,276.7 635.03,368.93 -25.44,671.71 -79.28,1310.66 -172.41,1964.47 -13.29,93.3 -53.23,402.29 -84.53,466.34 -40.7,83.28 -210.1,148.85 -315.71,201.72 -1326.16,663.84 -2987.79,885.13 -4496.63,615.79 -533.63,-95.26 -1197.58,-340.28 -1444.32,-682.77 -222.47,-308.8 -89.78,-526.94 -44.92,-870.13 54.55,-417.3 -380.92,-880.91 -256.9,-1239.75l870.33 -2825.32 280.51 855.9c94.48,235.35 253.21,538.07 375.8,719.93 177.04,262.64 822.49,1132.13 1129.99,1048.65l17.87 -735.57c44.32,21.13 309.36,288.25 520.27,441.72 817.46,594.76 637.87,282.25 730.79,-420.73 32.68,-247.23 66.15,-497.82 94.51,-744.41 28.65,-249.15 67.37,-490.48 100.09,-734.75l100.46 -620.25c31.14,-93.48 8.31,-30.63 27.39,-57.68 114.82,194.44 213.24,383.11 325.39,563.59 114.66,184.55 231.03,328.12 363.89,502 245.22,320.95 395.48,419.04 624.11,673.86 84.35,94.02 158.81,131.81 212.82,226.27 -217.53,-55.74 -378.68,-109.3 -621.4,-87.29 -185.99,16.86 -423.23,50.42 -533.05,164.88 2.72,249.42 141.38,228.64 359.52,201.76 -151.4,527.69 -126.2,939.25 -46.36,1473.43zm6386.75 -4097.89c94.44,-78.31 132.2,-107.18 235.04,-155.07 86.4,291.55 215.53,406.89 129.65,788.48 -57.34,254.72 -222.34,473.72 -352.27,592.94l-12.42 -1226.35zm-387.07 -1710.84c178.59,-119.71 153.11,-216.42 266.24,-323.75 128.03,96.79 244.66,175.72 345.62,333.34 341.58,533.29 36.86,1268.26 -252.93,1489.85 -65.9,-208.4 -98.29,-534.57 -155.42,-762.99 -53.5,-213.89 -191.47,-548.12 -203.51,-736.45zm-60.84 -119.67c-57.44,-83.84 -144.74,-308.64 -196.52,-415.09 -235.26,-483.52 -884.91,-1416.53 -1308.74,-1776.43 -112.32,-95.37 -231.02,-200.37 -345.36,-290.26 -73.25,-57.59 -281.66,-196.79 -328.89,-266.49 358.33,-45.04 673.17,64.82 872.14,242.8 249.76,223.41 272.03,542.11 323.77,652.66 90.29,192.91 380.4,102.48 644.24,254.25 632.47,363.81 639.93,1119.9 339.37,1598.55zm-11580.84 4407.48c93.39,968.76 750.34,1721.02 621.51,2140.12 -69.39,225.77 -109.66,398.42 -76.13,646.55 47.97,355.06 148.53,144.06 -0.57,520.49 -138.15,348.78 -231.9,714.56 -275.16,1115.22 -391.58,-148.86 -683.98,-1118.16 -763.6,-1261.66 -185.65,189.92 -271.98,744.26 -346.1,866.74 -232.73,-369.31 -245.5,-1682.3 -196.24,-2220.25 11.84,-129.27 33.24,-588.8 109.72,-703.57 169.21,163.67 353.66,391.02 576.83,502.91 14.68,-20.77 48.05,50.61 8.01,-69.75 -107.06,-75.58 -361.47,-481.73 -442.29,-622.07 -542.29,-941.73 -597.41,-1535.66 -581.64,-2623.39 -305.61,172.05 -864.72,1372.31 -913.61,1416.84 -13.82,-622.59 16.25,-1034.76 134.8,-1638.73 243.71,-1085.58 885.03,-2543.9 1665.93,-3342.63l635.22 -632.52c506.48,-469.96 1963.21,-1339.7 2401.34,-1306.43l294.78 -101.65c156.68,2.41 449.87,345.21 736.11,316.47 -17.34,-38.93 -2098.99,-1929.87 -1317.92,-3400.26 593.26,-1116.81 3073.77,-1607.48 3615.38,-1173.68 -680.41,60.65 -1055.85,137.79 -1563.02,458.09 -386.29,243.97 -740.04,591.17 -959.13,1060.83 -257.31,551.56 -291.57,1049.09 -187.6,1697.7 44.44,277.28 137.82,545.77 249.81,760.53 92.87,178.07 277.21,478.45 476.95,530.72 -22.55,-196.1 -148.24,-347.47 -158.88,-532 489.95,-196.16 1606.09,-262.07 2164.35,-249.52 1282.99,28.84 2614.7,464.61 3583.44,1222.97 324.64,254.14 1018.6,897.77 1156.43,1247.35 -189.76,385.47 -408.1,571.89 -730.66,808.21 -87.74,64.28 -212.33,134.47 -289.68,197.6 500.78,-67.35 953.13,-508.49 1080.37,-901.8 176.6,129.14 384.9,637.98 473.67,822.96 144.68,301.49 48.51,773.71 -35.65,1085.82 -93.84,348.05 -185.23,599.91 -332.15,903.45 -105.49,217.94 -445.51,716.73 -462.17,766.99 129.28,-71.06 311.21,-280.23 402.08,-395.09 404.31,-511.07 556.62,-1130.01 623.37,-1795.14 86.42,101.61 138.92,404.81 168.6,537.34 139.64,623.58 188.28,1221.96 133.26,1868.73 -34.8,408.98 -95.83,776.33 -201.95,1153.35 -146.73,521.36 -231.9,585.34 -384.86,969.18 -121.33,-251.69 -74.45,-363.2 -272.13,-607.65 -116.13,-143.6 -289.21,-271.62 -560.19,-306.44 43.19,-1535.93 -164.75,-2976.27 -819.73,-4168.71 -220.16,-400.81 -485.67,-811.84 -776.92,-1127.23 -106.9,-115.76 -207.67,-186.21 -308.37,-297.19l-331.53 -302.73c-295.19,-224.69 -849.5,-563.14 -1212.03,-614.2 181.37,59.63 487.83,268.91 646.02,372.09 407.81,266 766.88,636.48 1075.14,1002.03 144.22,171.02 295.14,392.21 426.36,611.61 1427.71,2387.21 1229.2,5414.25 64.46,7896.77 -82.8,176.48 -55.99,205.21 -237.75,282.19l-1472.88 599.56c146.24,-643.54 270.71,-1188.29 375.61,-1867.14 203.05,-1314.01 182.58,-2800.67 -101.8,-4099.1 -91.91,-419.65 -371.19,-1355.15 -606.54,-1589.12 110.71,540.27 269.38,802.3 415.47,1691.16 70.43,428.53 191.89,1568.51 121.68,1969.31 -533.1,-261.82 -962.3,-629.92 -1362.02,-1041.7 -205.03,-211.22 -286.52,-285.11 -485.32,-552.55 -247.34,-332.73 -645.48,-914.59 -796.01,-1278.37l-25.57 37.12c-85.96,155.4 23.73,-64.58 -20.37,39.5 -9.75,23.01 -20.28,68.33 -24.89,86.95l-127.82 571.34c-49.45,258.36 -89.47,533.16 -127.51,794.37 -78.83,541.35 -97.3,1135.75 -178.37,1661.22 -134.94,-45.8 -510.65,-361.63 -621.88,-451.45 -113.64,-91.76 -181.6,-162.59 -274.23,-273.46 -58.81,-70.38 -179.22,-222.97 -249.8,-267.18 -49.67,315.12 -48.46,609.53 -44.14,947.02 -424.97,-236.25 -948.72,-1195.06 -1151.52,-1716.24 -145.51,-373.93 -215.92,-750.75 -263.49,-1167.61 -27.28,-239.07 -35.31,-481.51 -19.94,-721.94 12.65,-197.77 62.02,-442.62 58.94,-623.91 -147.13,437.13 -232.32,677.6 -256.19,1202.23 -7.77,171.02 -589.61,1927.35 -691.24,2245.65l-339.81 1130.49c-300.79,-321.97 -380.61,-1408.53 -416.35,-1813.5 -129.71,339.51 -122.85,712.29 -100.29,1099.8zm2559.42 -7628.38c-102.34,96.77 -462.81,164.8 -612.5,221.54 -548.05,207.76 -1206.6,570.42 -1628.17,912.06 -807.88,654.69 -1054.17,911.57 -1634.67,1741.19 -428.48,612.34 -830.27,1472.64 -1054.44,2323.36 -183.04,694.61 -457.05,2360.98 -40.22,2970.49 269.37,23.77 177.82,-48.34 399.08,-596.47 50.67,-125.54 89.71,-223.32 148.35,-341.81 30.58,-61.77 55.5,-107.61 90.73,-169.63 5.2,-9.15 42.41,-71.06 43.41,-72.39 55.36,-73.32 1.15,-31.15 68.02,-61.75 13.56,972.01 478.95,1232.78 402.05,1628.1 -167.14,859.23 -163.88,1843.16 -9.02,2691.8 40.9,224.15 95.43,456.45 176.99,659.09 73.48,182.58 146.6,492.59 395.12,442.42 151.77,-164.3 89.97,-532.24 201.9,-740.44 111.83,136.76 535.97,932 962.69,860.56 76.25,-110.81 118.64,-554.67 169.02,-750.89 53.6,-208.78 139.7,-545.12 252.68,-698.73 185.39,85.69 308.68,286.37 911.31,474.81 347.86,108.78 800.08,209.5 1186.94,233.67 -49,123.11 -431.12,258.38 -526.06,578.14l-52 132.46c-101.92,-122.7 -231.68,-251.5 -358.42,-357.04 -148.39,-123.58 -225.62,-254.55 -505.56,-114.38 -346.92,173.72 -599.93,355.28 -863.09,578.21 -360.09,305.05 -247.83,410.32 -11.23,1002.62 267.82,670.44 495.86,782.85 343.92,1119.54 -63.4,140.51 -76.05,122.34 -327.55,220.65l-1043.26 397.76c-204.14,71.16 -321.67,164.91 -518.01,96.46 -949.81,-331.1 -1425.05,880.43 -1108.1,1452.32 126.94,229.05 555.67,511.81 937.95,525.38 236.22,8.39 439.24,-66.92 563.3,-179.45 219.85,-199.4 214.04,-345.71 298.96,-422.6l1526.83 -637.85c168.47,-73.84 217.57,-75.53 514.04,50.3l595.37 843.14c603.39,775.29 493.56,813.18 1786.81,129.17 176.73,-93.48 335.73,-129.96 334.64,-378.55 -0.96,-216.77 -86.06,-443.49 -80.92,-665.47l1719.67 -765.3c109.3,161.89 215.03,355.76 313.62,519.43 166.16,275.88 921.51,1373.15 1109.74,1398.24 172.79,-20.91 259.11,-209.79 349.91,-341.56 103.91,-150.79 186.07,-254.1 280.48,-412.01 116.31,-194.55 384.78,-782.09 505.07,-877.69 167.58,-133.17 97.71,-8.11 308.98,-384.37 233.65,-416.11 578.46,-1099.66 520.83,-1586.03 353.72,-141.04 2860.34,-1455.65 3266.13,-1664.76 299.01,-154.09 722.65,-346.15 961.12,-566.89l745.73 -811.76c81.14,-90.77 197.43,-241.35 279.24,-355.29 136.77,-190.48 466.52,-520.21 403.44,-796.4 -415.44,-204.89 -2154.15,-66.14 -2717.87,-13.75l-453.3 -944.96c224.25,107.03 777.77,585.14 1109.72,506.21 229.23,-54.51 540.09,-711.84 639.75,-1010.81 214.13,-642.3 262.87,-738 -366.63,-985.1 -367.97,-144.44 -903.02,-305.88 -1326.55,-325.23 20.57,-48.29 184.38,-183.52 242.26,-254.9 81.67,-100.71 157.1,-178.06 229.02,-319.57 203.43,-400.28 208.16,-852.6 -11.3,-1261.24 -109.46,-203.82 -28.47,-167.42 52.88,-371.19 108.06,-270.71 147.54,-603.1 71.32,-906.31 -184.46,-733.76 -615.16,-658.74 -598.93,-938.66 44.9,-774.33 -392.61,-1340.1 -1206.44,-1469.65 -145.74,-586.23 -610.26,-1051.6 -1323.25,-1057.01 -222.88,-1.69 -290.53,32.86 -482.71,86.28 -157.16,43.7 -285.18,-72.05 -425.35,-141.5 -1256.83,-622.68 -2650.26,-776.15 -4053.08,-562.39 -352.69,53.75 -694.87,158.28 -1015.94,206.15 -408.2,-1435.12 91.21,-2715.79 1574,-3162.31 822.08,-247.55 1197.38,18.83 1464.22,-121.7 89.21,-327.89 -343.37,-619.65 -606.09,-730.89 -1021.41,-432.47 -2499.64,22.14 -3314.88,555.21 -504.8,330.09 -1077.11,857.7 -1015.92,1784.98 54.93,832.48 442.23,1513.13 834.19,1984.99z"/>
   <path class="fil2" d="M13146.17 2953c142.89,70.46 1262.39,290.56 2131.43,690.25 1301.7,598.68 1647.42,912.57 2576.81,1661.87 219.17,176.71 833.55,791.19 1045.43,1060.57 112.05,142.47 209.02,250.25 319.8,401.5 204.73,279.55 379,535.68 584.1,857.91 685.82,1077.5 1272.49,2730.33 1379,4275.16 170.11,2467.3 -584.81,4709.23 -1902.63,6576.58 -111.02,157.31 -775.51,1000.08 -948.84,1157.18 -166.38,150.78 -207.54,187.6 -360.93,359.41l-363.88 328.22c-116.96,107.05 -276.38,223.42 -400.5,321.08 -439.09,345.49 -2517.16,1712.37 -2833.44,1181.91 -193.65,-324.81 376.82,-725.42 492.5,-840.62 206.21,-205.37 494.37,-405.92 626.57,-786.03 119.52,-343.62 81.44,-1014.26 -414.96,-732.74 -216.87,123 -401.91,605.57 -559.72,882.54 -321.99,565.1 -978.55,1576.87 -1533.47,1984.07 -156.95,115.16 -314.6,148.8 -456.58,264.5 -168.96,137.68 -602.41,534.38 -681.25,765.19 2331.42,-81.75 4230.31,-851.04 5942.24,-2194.74 63.48,-49.82 107.79,-95.75 172.26,-144.82l811.65 -774.9c471.19,-576.41 589.15,-612.4 1111.57,-1397.84 334.65,-503.12 632.37,-1009.65 915.44,-1594.49 559.53,-1156 962.34,-2547.77 1050.37,-3999.23 164.01,-2703.95 -675.13,-5100.66 -2270.17,-7135.96l-1399.57 -1427.36c-1148.08,-887.72 -1968.72,-1427.58 -3422.93,-1910.88 -160.08,-53.2 -1383.47,-407.01 -1530.91,-334.46 -116.13,57.15 -108.02,401.33 -79.41,506.16z"/>
   <path class="fil3" d="M7683.73 13629.39c100.52,124.92 52.24,461.53 25.38,632.95 -98.22,626.92 -730.8,756.28 -967.7,-164.79 -132.48,-499.62 -168.09,-957.6 -73.45,-1472.08 -202.31,-15.82 -291.56,-41.98 -300.01,-250.02 338.97,-196.76 861.61,51.32 1018.77,226 131.14,145.75 311.2,779.39 297.01,1027.94zm4449.98 44.07c-49.22,391.67 -273.82,774.63 -685.54,769.04 -426.31,-5.78 -567.22,-405.97 -641.86,-795.64 -79.83,-534.18 -105.04,-945.74 46.36,-1473.43 -218.14,26.87 -356.8,47.66 -359.52,-201.76 109.82,-114.47 347.06,-148.03 533.05,-164.88 242.72,-22.01 403.87,31.55 621.4,87.29 -54.01,-94.46 -128.47,-132.25 -212.82,-226.27 -228.62,-254.82 -378.89,-352.91 -624.11,-673.86 -132.85,-173.89 -249.22,-317.46 -363.89,-502 -112.14,-180.48 -210.57,-369.15 -325.39,-563.59 -19.08,27.05 3.75,-35.8 -27.39,57.68l-100.46 620.25c-32.72,244.27 -71.45,485.6 -100.09,734.75 -28.36,246.59 -61.83,497.18 -94.51,744.41 -92.92,702.98 86.67,1015.49 -730.79,420.73 -210.91,-153.46 -475.95,-420.59 -520.27,-441.72l-17.87 735.57c-307.49,83.48 -952.94,-786.01 -1129.99,-1048.65 -122.58,-181.87 -281.31,-484.58 -375.8,-719.93l-280.51 -855.9 -870.33 2825.32c-124.02,358.84 311.45,822.45 256.9,1239.75 -44.86,343.19 -177.56,561.33 44.92,870.13 246.74,342.49 910.69,587.51 1444.32,682.77 1508.84,269.34 3170.47,48.05 4496.63,-615.79 105.61,-52.86 275.01,-118.44 315.71,-201.72 31.3,-64.05 71.24,-373.04 84.53,-466.34 93.14,-653.81 146.97,-1292.76 172.41,-1964.47 -226.55,-92.23 -437.03,-252.34 -635.03,-368.93 -172.48,231.12 262.64,488.29 79.92,1497.19z"/>
   <path class="fil4" d="M2911.01 19898.51c64.86,-33.81 40.51,-31.34 113.47,-112.22 193.55,-214.55 326.93,-232.95 392.79,-315.81 -115.05,-154.15 -234.16,-250.81 -347.49,-389.17 -870.35,-1062.58 -1476.11,-2045.27 -1928.98,-3434.09 -833.02,-2554.59 -556.1,-5200.33 707.95,-7536.24 181.07,-334.61 391.4,-656.94 587.91,-939.93 113.29,-163.15 216.25,-296.73 333.31,-445.49 55.93,-71.07 117.43,-148.96 169.05,-206.12 853.43,-945.04 1582.36,-1608.11 2734.44,-2255.11l1037.84 -512.51 -204.9 -580.68c-265.38,41.57 -852.98,353.51 -1119.45,489.3 -365.73,186.37 -708.58,414.09 -1017,626.42l-797.71 616.45c-431.77,395.86 -947.04,888.22 -1300.43,1353.27 -123.78,162.89 -223.32,293.94 -346.29,461.12 -693.42,942.73 -1274.49,2164.94 -1588.22,3342.64 -816.93,3066.67 -125.49,6500.01 1809.41,8962.8 120.48,153.35 612.41,763.37 764.31,875.36z"/>
   <path class="fil5" d="M10030.41 17487.75c9.27,8.35 549.21,211.8 632.37,253.08 74.77,-65.36 3517.11,-1502.68 3877.89,-1638.68 539.67,-203.42 2597.86,-1147.19 2953.69,-1203.79 395.13,-62.85 855.26,-132.04 1261.71,-140.22 -73.7,123.72 -251.85,294.12 -349.33,393.87l-379.68 369.97c-369.66,340.63 -2325.92,1225.54 -2886.35,1525.6 -624.63,334.45 -1323.39,673.44 -1968.07,974.59 -340.81,159.2 -655.46,319.43 -992.55,478.51l-1024.23 488.82c-29.91,39.15 -242.01,631.4 -238.07,650.11 193.28,-47.22 2097.44,-1010.34 2457.4,-1184.55l3624.02 -1827.97c531.97,-275.74 1304.9,-588.89 1755.83,-982.74 225.51,-196.97 1125.46,-1180.34 1223.35,-1439.32 -532.69,-31.15 -1105.55,-11.53 -1636.31,20.17 -647.46,38.67 -768.78,113.72 -1296.28,345.08 -742.4,325.61 -6925.17,2842.39 -7015.4,2917.47z"/>
   <path class="fil6" d="M10662.78 17740.83l804.63 349.24 -311.55 899.42 1024.23 -488.82c337.09,-159.08 651.73,-319.3 992.55,-478.51 644.68,-301.15 1343.44,-640.15 1968.07,-974.59 560.43,-300.06 2516.69,-1184.97 2886.35,-1525.6l379.68 -369.97c97.49,-99.74 275.63,-270.15 349.33,-393.87 -406.45,8.18 -866.58,77.37 -1261.71,140.22 -355.83,56.6 -2414.02,1000.37 -2953.69,1203.79 -360.78,136 -3803.12,1573.33 -3877.89,1638.68z"/>
   <path class="fil7" d="M8881.22 18330.57c189.96,125.52 310.48,208.39 172.6,533.82 -42.47,100.24 -134.77,118.64 -243.24,161.99 -176.2,70.43 -139.05,20.59 -304.3,11.44 -59.65,83.34 -135.85,258.66 -146.04,340.78l391.29 133.74c28.7,-126.3 25.63,-148.23 140.28,-203.39 399.94,-192.42 332.43,-18.95 662.22,149.73 -39.9,363.3 -41.7,300.01 -343.23,428.42 -147.62,62.86 -363.8,166.84 -502.63,202.26 -329.87,-304.62 -320.8,-462.14 -609.26,-676.55 61.19,-308.32 -17.44,-506.87 10.03,-819.16l772.27 -263.07zm1168.77 -317.35c273.1,100.71 627.78,185.32 856.5,332.44 -72.01,224.8 -259.14,651.83 -368.57,879.41 -90.5,188.24 -146.38,172.82 -345.03,260.26 -127.97,56.32 -307.19,141.27 -447.36,174.37 75.92,-517.08 -63.62,-280.55 -260.2,-564.16 57.78,-52.15 294.65,-150.03 389.38,-189.59 238.44,-99.59 278.82,81.98 432.89,-25.18 -2.56,-124.06 -158.95,-167.34 -253.05,-207.44 22.83,-182.27 151.81,-202.12 -19.67,-316.35 -169.63,100.91 8.18,294.2 -711.09,462.75 85.02,-510.56 -4.88,-360.53 -183.81,-594.9 386.7,-130.67 658.11,-304.5 910.01,-211.61zm867.8 1626.38c-3.94,-18.71 208.17,-610.96 238.07,-650.11l311.55 -899.42 -804.63 -349.24c-83.16,-41.29 -623.1,-244.74 -632.37,-253.08 -255.33,80.4 -1762.17,628.73 -1881.43,611.2 -10.59,-5.3 -773.29,-1034.96 -1045.2,-1165.27 137.78,560.74 558.72,1859.11 634.86,2267.52 50.72,272.05 -69.64,114.71 271.08,563.61 477.85,629.58 608.44,777.9 1179.29,1301.04 62.13,56.93 112.86,160.34 216.32,186.26l-117.25 -860.25c453.5,-266.47 1222.08,-465.38 1629.71,-752.27z"/>
   <path class="fil8" d="M4822.57 13662.73c40.04,120.37 6.66,48.98 -8.01,69.75 -223.18,-111.89 -407.63,-339.24 -576.83,-502.91 -76.47,114.77 -97.88,574.3 -109.72,703.57 -49.26,537.95 -36.5,1850.94 196.24,2220.25 74.13,-122.48 160.45,-676.82 346.1,-866.74 79.62,143.5 372.01,1112.8 763.6,1261.66 43.27,-400.66 137.01,-766.44 275.16,-1115.22 149.11,-376.43 48.55,-165.42 0.57,-520.49 -33.53,-248.13 6.74,-420.78 76.13,-646.55 128.82,-419.1 -528.12,-1171.35 -621.51,-2140.12l-54.02 84.67c-141.53,299.71 -213.79,1306.28 -287.71,1452.12z"/>
   <path class="fil9" d="M3019.83 10195.38c121.52,-31.61 17.09,28.42 114.02,-47.67 85.91,-67.43 147.53,-450.36 356.57,-735.87 252.8,111.06 555.42,-156.96 702.89,-282.38 269.07,-228.83 265.72,-301.31 449.68,-673.93 547.31,-1108.61 595.14,-1225.28 1259.63,-2058.38 319.2,-400.19 784.53,-753.86 1196.92,-1052.58 112.48,-81.48 209.29,-134.79 330.24,-218.5l253.44 -178.15c58.63,-41.14 59.63,4.79 39.11,-34.12 -438.13,-33.27 -1894.87,836.47 -2401.34,1306.43l-635.22 632.52c-780.9,798.73 -1422.22,2257.05 -1665.93,3342.63z"/>
   <path class="fil10" d="M5227.53 21720.26c526,396.29 1641.94,852.87 2285.18,1078.11 841.04,294.52 1879.91,524.88 2839.69,558.24 -63.53,-184.77 -637.55,-807.25 -1004.88,-863.52 -1098.98,-168.36 -2235.26,-538.4 -3204.63,-1063.57 -130.99,-70.96 -196.47,-151.78 -357.04,-100.18 -276.95,88.99 -452.98,142.59 -558.31,390.92z"/>
   <path class="fil11" d="M5954.33 17393.89c144.19,552.28 427.75,972.04 609.23,1451.04 303.76,4.59 699.66,102.8 820.52,402.74 -246.28,4.29 -400.21,-171.38 -737.75,-188.5 -133.86,231.34 -166.03,421.97 -37.94,723.46 91.75,-46.32 146.07,-109.76 224.43,-143.88 126.25,-54.98 576.02,-168.22 732,-312.46l-555.33 -1875.12c-57.96,-207.11 -73.6,-492.53 -147.18,-672.28 -241.78,78.79 -804.96,470.78 -907.98,615.01z"/>
   <path class="fil12" d="M16874.95 12288.93c211.51,196.97 1119.09,850.14 1408.62,863.84 154.88,-183.53 493.1,-909.57 521.59,-1189.93 -291.51,-152.56 -1333.71,-504.13 -1704.1,-492.1 -53.8,114.62 -206.97,684.61 -226.11,818.19z"/>
   <path class="fil10" d="M9220.62 2619.2c-39.23,165.8 -82.19,351.41 -90.5,543.21 1018.37,-163.97 1377.06,-314.92 2491.05,-310.17 664.25,2.83 960.16,173.68 1012.54,-198.43 16.88,-119.87 -15.17,-212.45 -52.98,-292.91 -1114.44,-167.7 -2315.61,40.31 -3360.11,258.3z"/>
   <path class="fil13" d="M6593.89 20220.36c-158.4,-245.33 -172.54,-214.25 -217.05,-516.66l-62.52 -183.88c-220.71,87.65 -1853.11,700.85 -1891.88,733.79 -27.96,406.87 105.28,570.79 305.59,758.42l1865.86 -791.66z"/>
   <path class="fil14" d="M9139.97 18224.83c178.93,234.38 268.83,84.35 183.81,594.9 719.27,-168.56 541.47,-361.84 711.09,-462.75 171.48,114.24 42.5,134.09 19.67,316.35 94.1,40.1 250.49,83.37 253.05,207.44 -154.07,107.16 -194.45,-74.41 -432.89,25.18 -94.73,39.56 -331.6,137.44 -389.38,189.59 196.57,283.61 336.11,47.08 260.2,564.16 140.17,-33.1 319.39,-118.05 447.36,-174.37 198.66,-87.44 254.53,-72.02 345.03,-260.26 109.43,-227.58 296.56,-654.62 368.57,-879.41 -228.73,-147.12 -583.41,-231.73 -856.5,-332.44 -251.91,-92.89 -523.31,80.94 -910.01,211.61z"/>
   <path class="fil15" d="M12048.92 20157.2c-101.38,88.11 -1.79,32.8 -131.39,79.97l35.58 27.85c4.14,3.79 11.63,10.07 15.94,14.38 45.87,45.9 599.94,896.73 863.46,1050.65 202.82,-206.78 701.08,-995.46 759.17,-1225.05l-317.21 -268.85c-335.61,-223.83 -132.12,-149.68 -297.75,-269.74 -169.1,46.18 -781.36,581.49 -811.37,594.64 -80.33,35.2 -63.91,52.21 -116.44,-3.86z"/>
   <path class="fil16" d="M6741.4 14097.55c46.22,-38.84 4.38,9.49 37.26,-47.58 62.18,-107.93 126.71,-324.67 373.26,-349.54 307.41,-31.01 398.4,116.31 552.03,257.47 31.83,-170.66 -20.33,-187.35 -20.23,-328.51 14.19,-248.55 -165.87,-882.19 -297.01,-1027.94 -157.16,-174.68 -679.81,-422.76 -1018.77,-226 8.45,208.04 97.7,234.2 300.01,250.02 -94.64,514.48 -59.03,972.45 73.45,1472.08z"/>
   <path class="fil17" d="M8108.95 18593.64c-27.47,312.29 51.16,510.83 -10.03,819.16 288.46,214.41 279.39,371.93 609.26,676.55 138.83,-35.42 355.01,-139.39 502.63,-202.26 301.54,-128.41 303.33,-65.13 343.23,-428.42 -329.79,-168.68 -262.28,-342.15 -662.22,-149.73 -114.65,55.16 -111.58,77.09 -140.28,203.39l-391.29 -133.74c10.19,-82.12 86.39,-257.44 146.04,-340.78 165.25,9.15 128.1,58.99 304.3,-11.44 108.47,-43.35 200.77,-61.75 243.24,-161.99 137.88,-325.43 17.36,-408.3 -172.6,-533.82l-772.27 263.07z"/>
   <path class="fil18" d="M16745.14 7718.46c300.57,-478.65 293.1,-1234.74 -339.37,-1598.55 -263.84,-151.77 -553.95,-61.34 -644.24,-254.25 -51.73,-110.56 -74.01,-429.26 -323.77,-652.66 -198.97,-177.97 -513.8,-287.84 -872.14,-242.8 47.23,69.7 255.64,208.9 328.89,266.49 114.34,89.89 233.04,194.89 345.36,290.26 423.82,359.9 1073.48,1292.91 1308.74,1776.43 51.78,106.45 139.08,331.25 196.52,415.09z"/>
   <path class="fil19" d="M7490.5 20747.58c53.82,120.43 110.3,172.42 187.6,272.52 79.61,103.1 119.18,172.86 194.46,266.3 128.63,159.64 281.03,370.44 431.83,491.48 284.31,-72.12 747.2,-262.4 924.93,-432.7 -60.46,-55.71 -111.29,-76.4 -170.21,-120.61l-440.46 -398.8c-169.91,4.95 -636.77,-132.76 -765.49,-198.24 -55.31,-277.58 40.67,-270.53 -96.92,-666.6 -89.24,70.18 -57.94,16.77 -101.32,122.08 -4.28,10.39 -12.3,72.66 -14.23,105.77l-38.47 435.54c-18.71,78.82 5.35,30.72 -33.64,74.87 -49.6,56.16 4.59,9.52 -78.1,48.39z"/>
   <path class="fil20" d="M10909.7 13490.86c-11.56,50.53 15.25,9.44 -26.64,78.68 -52.54,86.85 -32.15,47.19 -76.76,77.33 74.64,389.66 215.55,789.86 641.86,795.64 411.72,5.59 636.32,-377.37 685.54,-769.04 -80.94,13.05 -59.08,24.22 -92.41,-67.37 -17.21,-47.3 -19.29,-116.23 -35.63,-162.69 -177.34,-81.19 -278.08,-225.52 -578.25,-187 -221.12,28.39 -385.26,156.65 -517.72,234.45z"/>
   <path class="fil19" d="M11080.12 23410c43.6,-67.33 204.5,-818.3 275.24,-1033.83 194.23,-591.81 251.97,-27.25 -63.03,-988.02l-147.54 -517.67c-4.62,-15.54 -20.09,-68.46 -29.5,-88.64 -38.64,-82.88 -14.93,-40 -52.82,-84 -47.23,205.51 -136.08,476.95 -202,693.97 -244.54,805.17 -322.25,376.2 -85.93,942.68 137.82,330.37 218.88,901.13 305.59,1075.51z"/>
   <path class="fil21" d="M10909.7 13490.86c132.46,-77.8 296.6,-206.06 517.72,-234.45 300.17,-38.52 400.91,105.81 578.25,187 -21.01,-365.74 -1.96,-632.67 -161.49,-944.47 -86.63,-169.32 -93.47,-215.62 -281.57,-264.98 -162.98,-42.77 -336.79,-101.77 -518.27,-57.2 -99.57,154.14 -140.61,393.66 -157.02,601.78 -15.18,192.49 36.23,640.68 22.38,712.33z"/>
   <path class="fil22" d="M14976.06 14212.1c348.03,-63.01 730.4,-465.35 864.26,-847.21 165.39,-471.82 36.56,-1149.71 -440.91,-1164.96 -76.7,278.83 -103.75,722.17 -172.77,1040.16 -70.98,327.04 -194.77,674.32 -250.58,972.01z"/>
   <path class="fil17" d="M8713.73 16268.49l219.03 6.79c-50.93,96.6 -68.09,91.48 -138.72,166.25 -74.94,79.32 -60.58,90.16 -142.18,174.41 -379.88,392.2 -131.11,162.94 -260.95,339.58 -97.51,-27.56 -155.39,-34.14 -105.37,-181.85 53.84,-158.95 185.81,-73.1 428.19,-505.18zm0 0c-184.32,-2.79 -336.24,152.56 -426.88,242.91l-358.94 298.22c-35.02,279.29 45.01,515.76 174.58,705.03 125.49,14.92 233.85,3.78 335.88,37.78 140.92,46.95 103.78,67.55 299.54,34.39l446.32 -1335.77 -470.51 17.44z"/>
   <path class="fil23" d="M14595.74 15226.25c264.5,-76.28 948.22,-392.51 1305.3,-530.15 157.41,-60.67 295.86,-139.74 459.88,-183.61l-147.3 -1012.84c-286.73,395.82 -378.54,765.31 -1041.43,1044.12 -286.41,120.46 -346.63,-11.93 -576.45,682.48z"/>
   <path class="fil7" d="M7490.5 20747.58c82.69,-38.87 28.5,7.77 78.1,-48.39 38.99,-44.15 14.93,3.95 33.64,-74.87l38.47 -435.54c1.92,-33.1 9.95,-95.38 14.23,-105.77 43.38,-105.31 12.08,-51.9 101.32,-122.08 137.59,396.07 41.61,389.02 96.92,666.6 128.72,65.48 595.57,203.19 765.49,198.24 -91.49,-136.4 -175.64,-180.78 -273.7,-299.57l-703.92 -949.74c-137.98,20.62 -43.75,12.93 -134.59,49.66 -48.03,19.42 -83.25,28.44 -131.03,41.59 -261.86,72.04 -181.78,114.29 -459.58,178.77 -79.04,18.35 -168.74,36.99 -231.03,85.45 227.44,472.87 342.74,337.09 554.38,344.67 72.98,176.09 149.65,308.91 251.32,470.96z"/>
   <path class="fil24" d="M16668.44 14356.87c222.89,-43.89 479,-195.99 717.5,-282.07 -16.18,-135.01 -594.61,-1370.26 -659.82,-1431.56 -80.64,104.83 -114.25,234.02 -185.9,350.85 -119.05,194.15 -107.9,194.19 -51.47,453.82 64.61,297.3 80.27,632.12 179.69,908.95z"/>
   <path class="fil18" d="M16805.98 7838.14c12.04,188.32 150.01,522.56 203.51,736.45 57.13,228.43 89.52,554.6 155.42,762.99 289.79,-221.59 594.51,-956.56 252.93,-1489.85 -100.96,-157.62 -217.59,-236.55 -345.62,-333.34 -113.13,107.33 -87.65,204.05 -266.24,323.75z"/>
   <path class="fil20" d="M6741.4 14097.55c236.9,921.07 869.48,791.71 967.7,164.79 26.86,-171.42 75.14,-508.03 -25.38,-632.95 -0.11,141.16 52.05,157.85 20.23,328.51 -153.64,-141.16 -244.62,-288.48 -552.03,-257.47 -246.54,24.87 -311.08,241.61 -373.26,349.54 -32.88,57.07 8.95,8.74 -37.26,47.58z"/>
   <path class="fil25" d="M3448.56 21110.91c126.7,-27.89 301.39,-94.03 433.89,-145.53 157.89,-61.39 236.27,-171.56 442.16,-174.37 -136.25,-404.99 -39.32,-472.86 -81.97,-582.97 -780.24,-255.24 -884.63,661.15 -794.08,902.88z"/>
   <path class="fil19" d="M3448.56 21110.91c146.87,381.86 1055.8,692.46 1201.68,21.31 -185.39,-66.57 -197.62,-174.58 -325.63,-341.21 -205.89,2.8 -284.27,112.98 -442.16,174.37 -132.49,51.51 -307.18,117.65 -433.89,145.53z"/>
   <path class="fil26" d="M10797.83 16823.76c-50.43,-100.45 14.95,-21.62 -81.14,-83.86 -306.43,-198.47 -577.82,-41.93 -571.32,-413.15l328.4 -169.52c65.83,-51.67 90.9,-4.37 33.79,-60.72l-1089.57 172.56c26.33,70.14 -6.07,10.86 38.87,84.72l163.72 171.25c-329.36,299.94 -374.23,86.44 -472.83,521.18 117.2,-62.24 222.49,-150.1 365.63,-231.29 515.48,-292.38 229.5,-266.1 826.8,-14.96 304.67,128.1 150.72,94.24 457.66,23.8z"/>
   <path class="fil27" d="M10507.55 16096.51c57.11,56.35 32.04,9.05 -33.79,60.72l-328.4 169.52c-6.5,371.22 264.9,214.68 571.32,413.15 96.1,62.24 30.72,-16.6 81.14,83.86l47.52 -95.19c7.01,-30.33 8.21,-82.66 17.02,-125.03 50.23,-241.42 239.43,-439.22 195.56,-636.3 -127.56,-1.34 -437.33,78.9 -550.39,129.27z"/>
   <path class="fil28" d="M9007.44 17487.9c290.03,-71.76 1076.14,-359.86 1333.58,-497.79 -65.22,-91.57 -249.31,-153.74 -377.75,-191.79 -180.93,-53.6 -290.31,36.85 -410.59,112.61 -124.87,78.66 -225.39,132.17 -342.16,205.93 -91.01,57.49 -94.46,41.68 -138.22,149.03 -30.18,74.04 -46.3,144.19 -64.86,222.01z"/>
   <path class="fil29" d="M17193.06 9548.98l12.42 1226.35c129.93,-119.22 294.93,-338.22 352.27,-592.94 85.88,-381.59 -43.25,-496.93 -129.65,-788.48 -102.84,47.88 -140.6,76.76 -235.04,155.07z"/>
   <path class="fil26" d="M11917.53 20237.16c129.6,-47.16 30.01,8.14 131.39,-79.97 123.61,-243.06 481.88,-622.41 548.89,-923.74 -458.18,99.76 -379.47,478.55 -773.53,779.69 33.82,132.62 69.41,96.99 93.25,224.02z"/>
   <path class="fil19" d="M12043.17 21699.69c-111.96,51.02 -207.35,117.93 -144.08,318.94 38.93,123.67 173.45,208.11 327.23,135.18 271.61,-128.79 142,-602.29 -183.16,-454.12z"/>
   <path class="fil19" d="M9956.02 21686.77c-337.13,137.99 -122.81,589.21 168.96,469.33 272.28,-111.87 132.99,-592.91 -168.96,-469.33z"/>
   <path class="fil7" d="M8713.73 16268.49c-242.37,432.08 -374.35,346.23 -428.19,505.18 -50.03,147.71 7.86,154.29 105.37,181.85 129.84,-176.64 -118.93,52.62 260.95,-339.58 81.6,-84.25 67.24,-95.09 142.18,-174.41 70.63,-74.77 87.79,-69.65 138.72,-166.25l-219.03 -6.79z"/>
  </g>
 </g>
</svg>
